#Comment line ignore any data following # character 
#Hierarchical Translation and Rotation (.htr) file 
[Header]	
#Header keywords are followed by a single value 
FileType HTR		#Single word string
DataType HTRS		#Translation followed by rotation and scale data
FileVersion 1		#integer
NumSegments 84		#integer
NumFrames 2		#integer
DataFrameRate 30		#integer, data frame rate in this file
EulerRotationOrder ZYX
CalibrationUnits mm
RotationUnits Degrees
GlobalAxisofGravity Y
BoneLengthAxis Y
ScaleFactor 1.00
[SegmentNames&Hierarchy]
#CHILD	PARENT
MASTER GLOBAL
root MASTER
chest root
L_mid_tent01 root
R_mid_tent01 root
spine01 root
Bip01_Neck chest
L_humerus chest
R_humerus chest
weapon_bone chest
Bip01_Head Bip01_Neck
eye_left_bone Bip01_Head
eye_right_bone Bip01_Head
L_forearm L_humerus
L_front_hand L_forearm
L_weapon_bone L_forearm
L_front_hand01_01 L_front_hand
L_front_hand02_01 L_front_hand
L_front_hand03_01 L_front_hand
L_front_hand01_02 L_front_hand01_01
L_front_hand02_02 L_front_hand02_01
L_front_hand03_02 L_front_hand03_01
R_forearm R_humerus
R_front_hand R_forearm
R_weapon_bone R_forearm
R_front_hand01_01 R_front_hand
R_front_hand02_01 R_front_hand
R_front_hand03_01 R_front_hand
R_front_hand01_02 R_front_hand01_01
R_front_hand02_02 R_front_hand02_01
R_front_hand03_02 R_front_hand03_01
null_rope01_connect L_mid_tent01
Rope1_Seg01 null_rope01_connect
Rope1_Seg02 Rope1_Seg01
Rope1_Seg03 Rope1_Seg02
Rope1_Seg04 Rope1_Seg03
Rope1_Seg05 Rope1_Seg04
Rope1_Seg06 Rope1_Seg05
Rope1_Seg07 Rope1_Seg06
Rope1_Seg09 Rope1_Seg07
L_mid_hand01 Rope1_Seg09
L_mid_hand02 Rope1_Seg09
L_mid_hand03 Rope1_Seg09
null_rope02_connect R_mid_tent01
Rope2_Seg01 null_rope02_connect
Rope2_Seg02 Rope2_Seg01
Rope2_Seg03 Rope2_Seg02
Rope2_Seg04 Rope2_Seg03
Rope2_Seg05 Rope2_Seg04
Rope2_Seg06 Rope2_Seg05
Rope2_Seg07 Rope2_Seg06
Rope2_Seg09 Rope2_Seg07
R_mid_hand01 Rope2_Seg09
R_mid_hand02 Rope2_Seg09
R_mid_hand03 Rope2_Seg09
spine02 spine01
spine03 spine02
pelvis spine03
null_rope03_connect pelvis
null_rope04_connect pelvis
Rope3_Seg01 null_rope03_connect
Rope3_Seg02 Rope3_Seg01
Rope3_Seg03 Rope3_Seg02
Rope3_Seg04 Rope3_Seg03
Rope3_Seg05 Rope3_Seg04
Rope3_Seg06 Rope3_Seg05
Rope3_Seg07 Rope3_Seg06
Rope3_Seg08 Rope3_Seg07
Rope3_Seg09 Rope3_Seg08
R_rear_hand01 Rope3_Seg09
R_rear_hand02 Rope3_Seg09
R_rear_hand03 Rope3_Seg09
Rope4_Seg01 null_rope04_connect
Rope4_Seg02 Rope4_Seg01
Rope4_Seg03 Rope4_Seg02
Rope4_Seg04 Rope4_Seg03
Rope4_Seg05 Rope4_Seg04
Rope4_Seg06 Rope4_Seg05
Rope4_Seg07 Rope4_Seg06
Rope4_Seg08 Rope4_Seg07
Rope4_Seg09 Rope4_Seg08
L_rear_hand01 Rope4_Seg09
L_rear_hand02 Rope4_Seg09
L_rear_hand03 Rope4_Seg09
[BasePosition]
#SegmentName Tx, Ty, Tz, Rx, Ry, Rz, BoneLength
MASTER 0.000000 0.000000 0.000000 -90.000000 0.000000 0.000000 10.000000 
root 0.000000 0.000000 0.000000 0.000000 0.000000 0.000000 10.000000 
chest 0.000000 0.000000 0.000000 0.000000 0.000000 0.000000 10.000000 
L_mid_tent01 0.000000 0.000000 0.000000 0.000000 0.000000 0.000000 10.000000 
R_mid_tent01 0.000000 0.000000 0.000000 0.000000 0.000000 0.000000 10.000000 
spine01 0.000000 0.000000 0.000000 0.000000 0.000000 0.000000 10.000000 
Bip01_Neck 0.000000 0.000000 0.000000 0.000000 0.000000 0.000000 10.000000 
L_humerus 0.000000 0.000000 0.000000 0.000000 0.000000 0.000000 10.000000 
R_humerus 0.000000 0.000000 0.000000 0.000000 0.000000 0.000000 10.000000 
weapon_bone 0.000000 0.000000 0.000000 0.000000 0.000000 0.000000 10.000000 
Bip01_Head 0.000000 0.000000 0.000000 0.000000 0.000000 0.000000 10.000000 
eye_left_bone 0.000000 0.000000 0.000000 0.000000 0.000000 0.000000 10.000000 
eye_right_bone 0.000000 0.000000 0.000000 0.000000 0.000000 0.000000 10.000000 
L_forearm 0.000000 0.000000 0.000000 0.000000 0.000000 0.000000 10.000000 
L_front_hand 0.000000 0.000000 0.000000 0.000000 0.000000 0.000000 10.000000 
L_weapon_bone 0.000000 0.000000 0.000000 0.000000 0.000000 0.000000 10.000000 
L_front_hand01_01 0.000000 0.000000 0.000000 0.000000 0.000000 0.000000 10.000000 
L_front_hand02_01 0.000000 0.000000 0.000000 0.000000 0.000000 0.000000 10.000000 
L_front_hand03_01 0.000000 0.000000 0.000000 0.000000 0.000000 0.000000 10.000000 
L_front_hand01_02 0.000000 0.000000 0.000000 0.000000 0.000000 0.000000 10.000000 
L_front_hand02_02 0.000000 0.000000 0.000000 0.000000 0.000000 0.000000 10.000000 
L_front_hand03_02 0.000000 0.000000 0.000000 0.000000 0.000000 0.000000 10.000000 
R_forearm 0.000000 0.000000 0.000000 0.000000 0.000000 0.000000 10.000000 
R_front_hand 0.000000 0.000000 0.000000 0.000000 0.000000 0.000000 10.000000 
R_weapon_bone 0.000000 0.000000 0.000000 0.000000 0.000000 0.000000 10.000000 
R_front_hand01_01 0.000000 0.000000 0.000000 0.000000 0.000000 0.000000 10.000000 
R_front_hand02_01 0.000000 0.000000 0.000000 0.000000 0.000000 0.000000 10.000000 
R_front_hand03_01 0.000000 0.000000 0.000000 0.000000 0.000000 0.000000 10.000000 
R_front_hand01_02 0.000000 0.000000 0.000000 0.000000 0.000000 0.000000 10.000000 
R_front_hand02_02 0.000000 0.000000 0.000000 0.000000 0.000000 0.000000 10.000000 
R_front_hand03_02 0.000000 0.000000 0.000000 0.000000 0.000000 0.000000 10.000000 
null_rope01_connect 0.000000 0.000000 0.000000 0.000000 0.000000 0.000000 10.000000 
Rope1_Seg01 0.000000 0.000000 0.000000 0.000000 0.000000 0.000000 10.000000 
Rope1_Seg02 0.000000 0.000000 0.000000 0.000000 0.000000 0.000000 10.000000 
Rope1_Seg03 0.000000 0.000000 0.000000 0.000000 0.000000 0.000000 10.000000 
Rope1_Seg04 0.000000 0.000000 0.000000 0.000000 0.000000 0.000000 10.000000 
Rope1_Seg05 0.000000 0.000000 0.000000 0.000000 0.000000 0.000000 10.000000 
Rope1_Seg06 0.000000 0.000000 0.000000 0.000000 0.000000 0.000000 10.000000 
Rope1_Seg07 0.000000 0.000000 0.000000 0.000000 0.000000 0.000000 10.000000 
Rope1_Seg09 0.000000 0.000000 0.000000 0.000000 0.000000 0.000000 10.000000 
L_mid_hand01 0.000000 0.000000 0.000000 0.000000 0.000000 0.000000 10.000000 
L_mid_hand02 0.000000 0.000000 0.000000 0.000000 0.000000 0.000000 10.000000 
L_mid_hand03 0.000000 0.000000 0.000000 0.000000 0.000000 0.000000 10.000000 
null_rope02_connect 0.000000 0.000000 0.000000 0.000000 0.000000 0.000000 10.000000 
Rope2_Seg01 0.000000 0.000000 0.000000 0.000000 0.000000 0.000000 10.000000 
Rope2_Seg02 0.000000 0.000000 0.000000 0.000000 0.000000 0.000000 10.000000 
Rope2_Seg03 0.000000 0.000000 0.000000 0.000000 0.000000 0.000000 10.000000 
Rope2_Seg04 0.000000 0.000000 0.000000 0.000000 0.000000 0.000000 10.000000 
Rope2_Seg05 0.000000 0.000000 0.000000 0.000000 0.000000 0.000000 10.000000 
Rope2_Seg06 0.000000 0.000000 0.000000 0.000000 0.000000 0.000000 10.000000 
Rope2_Seg07 0.000000 0.000000 0.000000 0.000000 0.000000 0.000000 10.000000 
Rope2_Seg09 0.000000 0.000000 0.000000 0.000000 0.000000 0.000000 10.000000 
R_mid_hand01 0.000000 0.000000 0.000000 0.000000 0.000000 0.000000 10.000000 
R_mid_hand02 0.000000 0.000000 0.000000 0.000000 0.000000 0.000000 10.000000 
R_mid_hand03 0.000000 0.000000 0.000000 0.000000 0.000000 0.000000 10.000000 
spine02 0.000000 0.000000 0.000000 0.000000 0.000000 0.000000 10.000000 
spine03 0.000000 0.000000 0.000000 0.000000 0.000000 0.000000 10.000000 
pelvis 0.000000 0.000000 0.000000 0.000000 0.000000 0.000000 10.000000 
null_rope03_connect 0.000000 0.000000 0.000000 0.000000 0.000000 0.000000 10.000000 
null_rope04_connect 0.000000 0.000000 0.000000 0.000000 0.000000 0.000000 10.000000 
Rope3_Seg01 0.000000 0.000000 0.000000 0.000000 0.000000 0.000000 10.000000 
Rope3_Seg02 0.000000 0.000000 0.000000 0.000000 0.000000 0.000000 10.000000 
Rope3_Seg03 0.000000 0.000000 0.000000 0.000000 0.000000 0.000000 10.000000 
Rope3_Seg04 0.000000 0.000000 0.000000 0.000000 0.000000 0.000000 10.000000 
Rope3_Seg05 0.000000 0.000000 0.000000 0.000000 0.000000 0.000000 10.000000 
Rope3_Seg06 0.000000 0.000000 0.000000 0.000000 0.000000 0.000000 10.000000 
Rope3_Seg07 0.000000 0.000000 0.000000 0.000000 0.000000 0.000000 10.000000 
Rope3_Seg08 0.000000 0.000000 0.000000 0.000000 0.000000 0.000000 10.000000 
Rope3_Seg09 0.000000 0.000000 0.000000 0.000000 0.000000 0.000000 10.000000 
R_rear_hand01 0.000000 0.000000 0.000000 0.000000 0.000000 0.000000 10.000000 
R_rear_hand02 0.000000 0.000000 0.000000 0.000000 0.000000 0.000000 10.000000 
R_rear_hand03 0.000000 0.000000 0.000000 0.000000 0.000000 0.000000 10.000000 
Rope4_Seg01 0.000000 0.000000 0.000000 0.000000 0.000000 0.000000 10.000000 
Rope4_Seg02 0.000000 0.000000 0.000000 0.000000 0.000000 0.000000 10.000000 
Rope4_Seg03 0.000000 0.000000 0.000000 0.000000 0.000000 0.000000 10.000000 
Rope4_Seg04 0.000000 0.000000 0.000000 0.000000 0.000000 0.000000 10.000000 
Rope4_Seg05 0.000000 0.000000 0.000000 0.000000 0.000000 0.000000 10.000000 
Rope4_Seg06 0.000000 0.000000 0.000000 0.000000 0.000000 0.000000 10.000000 
Rope4_Seg07 0.000000 0.000000 0.000000 0.000000 0.000000 0.000000 10.000000 
Rope4_Seg08 0.000000 0.000000 0.000000 0.000000 0.000000 0.000000 10.000000 
Rope4_Seg09 0.000000 0.000000 0.000000 0.000000 0.000000 0.000000 10.000000 
L_rear_hand01 0.000000 0.000000 0.000000 0.000000 0.000000 0.000000 10.000000 
L_rear_hand02 0.000000 0.000000 0.000000 0.000000 0.000000 0.000000 10.000000 
L_rear_hand03 0.000000 0.000000 0.000000 0.000000 0.000000 0.000000 10.000000 
#Beginning of Data. Separated by tabs
#Fr	Tx	Ty	Tz	Rx	Ry	Rz	SF
[MASTER]
32 -868.495178 8376.646484 2466.532471 0.001660 0.001660 0.001660 8775.321289
33 -1173.830322 8894.243164 2291.252686 0.001660 0.001660 0.001660 9259.333984
[root]
32 629.351501 -144.908447 578.139648 -43.321297 -13.954805 -50.411228 866.791321
33 552.207031 -169.169312 583.746521 -46.284752 -15.132154 -48.983303 821.164307
[chest]
32 -84.512650 -34.090519 0.000000 4.356278 -2.603440 170.601883 91.129311
33 -84.512650 -34.090519 0.000000 6.912565 -3.656880 168.914749 91.129311
[L_mid_tent01]
32 27.298861 22.179258 -249.918686 -17.670376 9.580554 38.370895 252.381653
33 27.298853 22.179258 -249.918686 -18.080044 8.993388 35.150684 252.381653
[R_mid_tent01]
32 23.228794 24.509907 226.238495 150.402344 -54.235710 32.982494 228.744751
33 23.228794 24.509907 226.238495 155.566910 -43.260120 19.192976 228.744751
[spine01]
32 -0.361383 -0.195265 0.000000 0.001697 0.001621 2.618157 0.410763
33 -0.361383 -0.195265 0.000000 0.001694 0.001625 2.360919 0.410763
[Bip01_Neck]
32 165.484543 71.581718 0.000119 176.643677 -1.657967 43.431911 180.302734
33 165.484543 71.581718 0.000119 176.643677 -1.657967 43.431911 180.302734
[L_humerus]
32 -13.983130 -135.272980 -120.471481 172.183990 -1.027521 -89.938560 181.680161
33 -13.983130 -135.272980 -120.471481 172.188232 -1.817578 -90.727409 181.680161
[R_humerus]
32 -13.983309 -135.273102 125.287651 -177.011505 4.533034 -85.304108 184.909012
33 -13.983309 -135.273102 125.287651 -177.005859 5.054319 -85.276794 184.909012
[weapon_bone]
32 235.964890 -300.705902 0.000000 0.000000 -89.951546 -128.212341 382.234833
33 235.964890 -300.705902 0.000000 0.000000 -89.951546 -128.212341 382.234833
[Bip01_Head]
32 213.376114 185.904648 9.340585 8.893019 0.104946 -47.400337 283.155701
33 213.379654 185.894836 9.467656 8.118070 0.811554 -46.985939 283.156158
[eye_left_bone]
32 -24.626970 125.451866 -64.772606 0.000000 -90.000000 -99.840431 143.318359
33 -24.626970 125.451866 -64.772606 0.000000 -90.000000 -99.840431 143.318359
[eye_right_bone]
32 -24.626970 125.451866 64.327362 0.000000 -89.965736 80.156380 143.117676
33 -24.626970 125.451866 64.327362 0.000000 -89.965736 80.156380 143.117676
[L_forearm]
32 322.776093 0.000000 -0.000119 0.000431 -0.002307 -111.159370 322.776093
33 322.776093 0.000000 -0.000119 0.000430 -0.002307 -111.131783 322.776093
[L_front_hand]
32 241.149185 -0.042021 -3.300071 -178.667953 -1.835447 -27.422350 241.171753
33 241.149185 -0.042021 -3.300071 -178.667953 -1.835447 -27.422342 241.171753
[L_weapon_bone]
32 156.183838 0.000000 0.000000 0.000014 0.000007 0.000001 156.183838
33 156.183838 0.000000 0.000000 0.000014 0.000007 0.000001 156.183838
[L_front_hand01_01]
32 86.095154 20.947098 -0.655860 -0.366594 -0.477154 75.385574 88.609184
33 86.095154 20.947098 -0.655860 -0.366594 -0.477154 75.385574 88.609184
[L_front_hand02_01]
32 86.935165 -11.437475 24.513514 154.399796 -59.883835 -61.369587 91.046425
33 86.935165 -11.437475 24.513514 154.399796 -59.883835 -61.369587 91.046425
[L_front_hand03_01]
32 86.637497 -14.123976 -20.424902 -153.913849 58.118122 -62.702866 90.126129
33 86.637497 -14.123976 -20.424902 -153.913849 58.118122 -62.702866 90.126129
[L_front_hand01_02]
32 71.020905 -0.000179 0.000030 0.000334 -0.002323 -106.371452 71.020905
33 71.020905 -0.000179 0.000030 0.000334 -0.002323 -106.372131 71.020905
[L_front_hand02_02]
32 71.020927 -0.000119 0.000060 0.000334 -0.002323 -106.371452 71.020927
33 71.020927 -0.000119 0.000060 0.000334 -0.002323 -106.372131 71.020927
[L_front_hand03_02]
32 71.020905 -0.000060 0.000060 0.000334 -0.002323 -106.371452 71.020905
33 71.020905 -0.000060 0.000060 0.000334 -0.002323 -106.372131 71.020905
[R_forearm]
32 322.776428 -0.000060 0.000030 0.201083 0.068241 -109.815483 322.776428
33 322.776428 -0.000060 0.000030 0.201101 0.068186 -109.784050 322.776428
[R_front_hand]
32 238.847015 -0.006795 2.210259 -2.635298 -10.645461 -26.312506 238.857239
33 238.847015 -0.006795 2.210259 -2.635298 -10.645461 -26.312506 238.857239
[R_weapon_bone]
32 155.664093 0.002503 -0.000030 0.003487 0.001180 -90.988930 155.664078
33 155.664093 0.002503 -0.000030 0.003487 0.001180 -90.988930 155.664078
[R_front_hand01_01]
32 87.624611 14.231146 22.918642 -154.633499 -59.950619 61.746044 91.683487
33 87.624611 14.231146 22.918642 -154.633499 -59.950619 61.746044 91.683487
[R_front_hand02_01]
32 89.356956 14.367283 -19.491137 154.602661 58.302849 63.744389 92.579636
33 89.356956 14.367283 -19.491137 154.602661 58.302849 63.744389 92.579636
[R_front_hand03_01]
32 87.286232 -22.307278 -0.143439 0.162155 -0.423168 -75.767921 90.091743
33 87.286232 -22.307278 -0.143439 0.162155 -0.423168 -75.767921 90.091743
[R_front_hand01_02]
32 71.020905 0.000060 0.000119 0.002323 -0.000334 106.381714 71.020905
33 71.020905 0.000060 0.000119 0.002323 -0.000334 106.381714 71.020905
[R_front_hand02_02]
32 71.020844 -0.000030 -0.000119 0.002323 -0.000334 106.381714 71.020836
33 71.020844 -0.000030 -0.000119 0.002323 -0.000334 106.381714 71.020836
[R_front_hand03_02]
32 71.020905 0.000000 0.000030 0.002323 -0.000334 106.381714 71.020905
33 71.020905 0.000000 0.000030 0.002323 -0.000334 106.381714 71.020905
[null_rope01_connect]
32 328.732483 0.000000 -0.000238 58.753529 -35.182045 -2.690058 328.732483
33 328.732483 0.000000 -0.000238 62.516335 -35.702950 -1.355483 328.732483
[Rope1_Seg01]
32 0.000038 -0.000562 0.000000 100.871696 61.501556 -60.337170 0.000563
33 0.000038 -0.000579 0.000000 112.500076 1.081070 -47.442875 0.000580
[Rope1_Seg02]
32 139.999863 -0.000179 0.000000 -3.710167 17.238024 -8.359270 139.999863
33 139.999863 -0.000179 0.000000 0.790538 9.575278 -2.791174 139.999863
[Rope1_Seg03]
32 139.999924 0.000060 -0.000060 -12.105366 24.272146 -16.278049 139.999924
33 139.999924 0.000060 -0.000060 -1.798069 16.726376 -10.404788 139.999924
[Rope1_Seg04]
32 139.999924 -0.000060 -0.000119 -43.634129 28.318586 2.623566 139.999924
33 139.999924 -0.000060 -0.000119 -0.958150 7.799430 19.976782 139.999924
[Rope1_Seg05]
32 139.999832 0.000119 -0.000060 -23.768629 8.635884 23.455704 139.999832
33 139.999832 0.000119 -0.000060 0.099166 1.467265 6.832583 139.999832
[Rope1_Seg06]
32 139.999954 0.000119 -0.000060 -6.166520 0.475465 11.162604 139.999954
33 139.999954 0.000119 -0.000060 0.166171 1.001679 2.970971 139.999954
[Rope1_Seg07]
32 139.999985 0.000060 0.000000 -2.360829 -0.387074 5.888970 139.999985
33 139.999985 0.000060 0.000000 0.123466 0.558803 1.649255 139.999985
[Rope1_Seg09]
32 121.602913 0.000119 -0.000089 -89.793175 -1.359789 0.847147 121.602913
33 121.602913 0.000119 -0.000089 -89.793175 -1.359789 0.847147 121.602913
[L_mid_hand01]
32 103.859421 1.038730 8.195221 130.544373 -67.584534 -38.866943 104.187431
33 103.859421 1.038730 8.195221 130.544373 -67.584518 -38.866947 104.187431
[L_mid_hand02]
32 105.572853 -4.139662 -10.864139 -168.923172 43.409309 -73.498886 106.211075
33 105.572853 -4.139662 -10.864139 -168.923172 43.409317 -73.498894 106.211075
[L_mid_hand03]
32 104.641464 17.579376 -3.913581 -6.012625 17.808174 74.893661 106.179977
33 104.641464 17.579376 -3.913581 -6.012625 17.808174 74.893661 106.179977
[null_rope02_connect]
32 328.732849 0.000179 -0.000119 -97.897530 -17.475307 -26.528635 328.732849
33 328.732849 0.000179 -0.000119 -97.107513 -3.246464 -27.846266 328.732849
[Rope2_Seg01]
32 0.000078 -0.000477 0.000000 113.198242 -34.675430 19.722071 0.000483
33 0.000078 -0.000496 0.000000 -36.041378 -7.405090 -65.153221 0.000502
[Rope2_Seg02]
32 139.999741 -0.000060 -0.000119 -9.344005 -2.283510 -18.038681 139.999756
33 139.999741 -0.000060 -0.000119 4.600747 -12.039605 6.707864 139.999756
[Rope2_Seg03]
32 140.000107 0.000030 0.000000 -4.633053 -13.625157 -1.872353 140.000107
33 140.000107 0.000030 0.000000 152.004395 -15.830045 11.960037 140.000107
[Rope2_Seg04]
32 139.999802 0.000000 -0.000060 -21.410824 -32.791172 5.279671 139.999802
33 139.999802 0.000000 -0.000060 1.600257 -4.188091 2.036889 139.999802
[Rope2_Seg05]
32 139.999985 -0.000060 0.000119 -29.320356 -11.637121 -2.967252 139.999985
33 139.999985 -0.000060 0.000119 -169.151001 -11.117598 3.520809 139.999985
[Rope2_Seg06]
32 139.999893 -0.000030 -0.000119 -25.755482 -4.652239 -4.495915 139.999893
33 139.999893 -0.000030 -0.000119 -2.215369 3.098174 -1.834810 139.999893
[Rope2_Seg07]
32 139.999893 0.000060 -0.000060 -12.424163 -1.059261 -2.888340 139.999893
33 139.999893 0.000060 -0.000060 -0.809021 2.016992 -1.090950 139.999893
[Rope2_Seg09]
32 121.338966 0.000089 -0.000060 33.793236 -1.359788 -0.847141 121.338966
33 121.338966 0.000089 -0.000060 33.793236 -1.359788 -0.847141 121.338966
[R_mid_hand01]
32 104.680779 11.144459 -10.335981 -16.212063 45.237240 70.462845 105.778534
33 104.680779 11.144459 -10.335981 -16.212063 45.237247 70.462852 105.778534
[R_mid_hand02]
32 104.070427 2.443552 8.231699 49.067368 -67.749771 39.286453 104.424065
33 104.070427 2.443552 8.231699 49.067371 -67.749794 39.286461 104.424065
[R_mid_hand03]
32 106.028137 -11.221827 -5.996406 -177.101105 15.551026 -76.585571 106.788818
33 106.028137 -11.221827 -5.996406 -177.101105 15.551026 -76.585571 106.788818
[spine02]
32 129.756927 0.001550 0.000119 0.533439 -4.024476 -15.431986 129.756927
33 129.756927 0.001550 0.000119 0.530718 -4.024838 -15.389442 129.756927
[spine03]
32 78.613731 0.081702 -4.898995 1.999596 3.776836 18.047235 78.766266
33 78.613716 0.081704 -4.898995 1.996829 3.778579 18.008768 78.766251
[pelvis]
32 169.435242 0.051022 0.000000 5.099589 -0.346633 -7.206782 169.435257
33 169.435242 0.051022 0.000000 4.351380 -0.294639 -7.989247 169.435257
[null_rope03_connect]
32 -1.257226 -2.466202 137.391083 34.927189 -19.500305 50.639870 137.418976
33 -1.257226 -2.466202 137.391083 38.740036 -20.792843 49.971828 137.418976
[null_rope04_connect]
32 -1.259640 -2.480268 -137.844437 34.927189 -19.500305 50.639870 137.872513
33 -1.259640 -2.480268 -137.844437 38.740036 -20.792843 49.971828 137.872513
[Rope3_Seg01]
32 0.000000 0.000000 0.000000 -4.071903 -21.971586 -32.417198 0.000000
33 0.000000 0.000000 0.000000 12.225487 -7.350700 -51.631512 0.000000
[Rope3_Seg02]
32 139.999924 -0.000119 0.000060 -0.872031 6.846365 14.116289 139.999924
33 139.999924 -0.000119 0.000060 -3.270790 -1.543659 9.318799 139.999924
[Rope3_Seg03]
32 139.999924 -0.000119 0.000119 5.504628 7.634223 4.965611 139.999924
33 139.999924 -0.000119 0.000119 -1.972391 -0.397628 5.278329 139.999924
[Rope3_Seg04]
32 139.999924 0.000119 0.000000 -4.592928 0.014106 5.001841 139.999924
33 139.999924 0.000119 0.000000 -1.561866 -0.533777 3.189749 139.999924
[Rope3_Seg05]
32 139.999924 -0.000238 0.000060 -21.129288 -8.803574 8.204208 139.999924
33 139.999924 -0.000238 0.000060 -2.909338 -2.826555 3.038106 139.999924
[Rope3_Seg06]
32 139.999893 -0.000119 -0.000060 -16.944572 -10.962704 4.045595 139.999893
33 139.999893 -0.000119 -0.000060 -4.869655 -5.588136 3.952188 139.999893
[Rope3_Seg07]
32 139.999771 0.000060 -0.000119 -7.320344 -6.542139 0.956712 139.999771
33 139.999771 0.000060 -0.000119 -4.562722 -5.395671 3.799894 139.999771
[Rope3_Seg08]
32 139.999985 -0.000060 0.000000 -3.728642 -4.306803 0.077542 139.999985
33 139.999985 -0.000060 0.000000 -3.728804 -4.853821 2.948426 139.999985
[Rope3_Seg09]
32 90.185997 -0.000179 -0.000060 89.793228 -1.359877 -0.847183 90.185997
33 90.185997 -0.000179 -0.000060 89.793228 -1.359877 -0.847183 90.185997
[R_rear_hand01]
32 103.366196 -6.073594 -10.757982 -177.714203 24.565960 -73.910950 104.101845
33 103.366196 -6.073594 -10.757982 -177.714203 24.565960 -73.910950 104.101845
[R_rear_hand02]
32 100.509819 12.039542 -7.992327 -12.874829 36.868488 72.167213 101.543350
33 100.509819 12.039542 -7.992327 -12.874827 36.868492 72.167221 101.543350
[R_rear_hand03]
32 101.539970 5.215704 5.435467 71.484581 -71.816628 21.513813 101.819031
33 101.539970 5.215704 5.435467 71.484581 -71.816628 21.513813 101.819031
[Rope4_Seg01]
32 0.000001 -0.000562 -0.000153 -61.791992 44.284306 -47.955406 0.000582
33 0.000001 -0.000579 -0.000153 -52.491390 28.230736 -33.678551 0.000599
[Rope4_Seg02]
32 139.999985 0.000060 0.000119 1.879086 -7.841950 0.745465 139.999985
33 139.999985 0.000060 0.000119 -3.750092 -7.303955 -7.599276 139.999985
[Rope4_Seg03]
32 139.999924 0.000000 -0.000238 3.510727 -10.060217 1.262221 139.999924
33 139.999924 0.000000 -0.000238 -8.617527 -9.054925 -9.996840 139.999924
[Rope4_Seg04]
32 139.999985 0.000000 0.000119 6.957397 -12.942851 2.094017 139.999985
33 139.999985 0.000000 0.000119 -24.027660 -6.985964 -11.984508 139.999985
[Rope4_Seg05]
32 139.999802 -0.000060 -0.000119 11.109632 -10.881435 4.527714 139.999802
33 139.999802 -0.000060 -0.000119 -12.376346 3.057784 -3.350989 139.999802
[Rope4_Seg06]
32 139.999924 0.000000 0.000060 9.008407 -5.046133 4.377410 139.999924
33 139.999924 0.000000 0.000060 -5.761070 2.061086 -1.493812 139.999924
[Rope4_Seg07]
32 139.999802 0.000000 0.000000 7.796127 -3.616718 3.743476 139.999802
33 139.999802 0.000000 0.000000 -4.607295 1.409938 -1.416357 139.999802
[Rope4_Seg08]
32 139.999924 0.000000 0.000119 3.722728 -1.940533 2.645946 139.999924
33 139.999924 0.000000 0.000119 -4.239835 0.951423 -0.815548 139.999924
[Rope4_Seg09]
32 90.185791 0.000060 0.000060 -135.617828 2.228885 0.850567 90.185791
33 90.185791 0.000060 0.000060 -135.617828 2.228885 0.850567 90.185791
[L_rear_hand01]
32 101.696655 -8.392275 -7.654577 -12.874829 -36.868488 107.832764 102.329041
33 101.696655 -8.392275 -7.654577 -12.874831 -36.868481 107.832764 102.329041
[L_rear_hand02]
32 102.726799 -1.568258 5.773216 71.484558 71.816597 158.486160 102.900848
33 102.726799 -1.568258 5.773216 71.484581 71.816628 158.486160 102.900848
[L_rear_hand03]
32 104.552910 9.721220 -10.420293 -177.714203 -24.565966 -106.089035 105.519653
33 104.552910 9.721220 -10.420293 -177.714203 -24.565960 -106.089035 105.519653
